<?xml version="1.0" encoding="UTF-8" standalone="no"?><svg xmlns="http://www.w3.org/2000/svg" xmlns:xlink="http://www.w3.org/1999/xlink" contentScriptType="application/ecmascript" contentStyleType="text/css" height="359px" preserveAspectRatio="none" style="width:841px;height:359px;" version="1.1" viewBox="0 0 841 359" width="841px" zoomAndPan="magnify"><defs><filter height="300%" id="f7fzru86zx0v5" width="300%" x="-1" y="-1"><feGaussianBlur result="blurOut" stdDeviation="2.0"/><feColorMatrix in="blurOut" result="blurOut2" type="matrix" values="0 0 0 0 0 0 0 0 0 0 0 0 0 0 0 0 0 0 .4 0"/><feOffset dx="4.0" dy="4.0" in="blurOut2" result="blurOut3"/><feBlend in="SourceGraphic" in2="blurOut3" mode="normal"/></filter></defs><g><rect fill="#FEFECE" filter="url(#f7fzru86zx0v5)" height="36.2969" rx="12.5" ry="12.5" style="stroke:#A80036;stroke-width:1.5;" width="57" x="284" y="160.7422"/><text fill="#000000" font-family="sans-serif" font-size="14" lengthAdjust="spacing" textLength="37" x="294" y="183.7373">squid</text><rect fill="#FEFECE" filter="url(#f7fzru86zx0v5)" height="36.2969" rx="12.5" ry="12.5" style="stroke:#A80036;stroke-width:1.5;" width="56" x="391" y="76.2969"/><text fill="#000000" font-family="sans-serif" font-size="14" lengthAdjust="spacing" textLength="36" x="401" y="99.292">tipus</text><rect fill="#FEFECE" filter="url(#f7fzru86zx0v5)" height="36.2969" rx="12.5" ry="12.5" style="stroke:#A80036;stroke-width:1.5;" width="72" x="497" y="20"/><text fill="#000000" font-family="sans-serif" font-size="14" lengthAdjust="spacing" textLength="52" x="507" y="42.9951">directe</text><path d="M447,94.4453 L457,94.4453 C472,94.4453 472,38.1484 487,38.1484 L497,38.1484 " fill="none" style="stroke:#A80036;stroke-width:1.0;"/><rect fill="#FEFECE" filter="url(#f7fzru86zx0v5)" height="36.2969" rx="12.5" ry="12.5" style="stroke:#A80036;stroke-width:1.5;" width="106" x="497" y="76.2969"/><text fill="#000000" font-family="sans-serif" font-size="14" lengthAdjust="spacing" textLength="86" x="507" y="99.292">transparent</text><path d="M447,94.4453 L457,94.4453 C472,94.4453 472,94.4453 487,94.4453 L497,94.4453 " fill="none" style="stroke:#A80036;stroke-width:1.0;"/><rect fill="#FEFECE" filter="url(#f7fzru86zx0v5)" height="36.2969" rx="12.5" ry="12.5" style="stroke:#A80036;stroke-width:1.5;" width="63" x="497" y="132.5938"/><text fill="#000000" font-family="sans-serif" font-size="14" lengthAdjust="spacing" textLength="43" x="507" y="155.5889">invers</text><path d="M447,94.4453 L457,94.4453 C472,94.4453 472,150.7422 487,150.7422 L497,150.7422 " fill="none" style="stroke:#A80036;stroke-width:1.0;"/><path d="M341,178.8906 L351,178.8906 C366,178.8906 366,94.4453 381,94.4453 L391,94.4453 " fill="none" style="stroke:#A80036;stroke-width:1.0;"/><rect fill="#FEFECE" filter="url(#f7fzru86zx0v5)" height="36.2969" rx="12.5" ry="12.5" style="stroke:#A80036;stroke-width:1.5;" width="95" x="391" y="245.1875"/><text fill="#000000" font-family="sans-serif" font-size="14" lengthAdjust="spacing" textLength="75" x="401" y="268.1826">navegador</text><rect fill="#FEFECE" filter="url(#f7fzru86zx0v5)" height="36.2969" rx="12.5" ry="12.5" style="stroke:#A80036;stroke-width:1.5;" width="108" x="536" y="188.8906"/><text fill="#000000" font-family="sans-serif" font-size="14" lengthAdjust="spacing" textLength="88" x="546" y="211.8857">configuració</text><rect fill="#FEFECE" filter="url(#f7fzru86zx0v5)" height="36.2969" rx="12.5" ry="12.5" style="stroke:#A80036;stroke-width:1.5;" width="72" x="694" y="188.8906"/><text fill="#000000" font-family="sans-serif" font-size="14" lengthAdjust="spacing" textLength="52" x="704" y="211.8857">directe</text><path d="M644,207.0391 L654,207.0391 C669,207.0391 669,207.0391 684,207.0391 L694,207.0391 " fill="none" style="stroke:#A80036;stroke-width:1.0;"/><path d="M486,263.3359 L496,263.3359 C511,263.3359 511,207.0391 526,207.0391 L536,207.0391 " fill="none" style="stroke:#A80036;stroke-width:1.0;"/><rect fill="#FEFECE" filter="url(#f7fzru86zx0v5)" height="36.2969" rx="12.5" ry="12.5" style="stroke:#A80036;stroke-width:1.5;" width="130" x="536" y="273.3359"/><text fill="#000000" font-family="sans-serif" font-size="14" lengthAdjust="spacing" textLength="110" x="546" y="296.3311">no configuració</text><rect fill="#FEFECE" filter="url(#f7fzru86zx0v5)" height="36.2969" rx="12.5" ry="12.5" style="stroke:#A80036;stroke-width:1.5;" width="106" x="716" y="245.1875"/><text fill="#000000" font-family="sans-serif" font-size="14" lengthAdjust="spacing" textLength="86" x="726" y="268.1826">transparent</text><path d="M666,291.4844 L676,291.4844 C691,291.4844 691,263.3359 706,263.3359 L716,263.3359 " fill="none" style="stroke:#A80036;stroke-width:1.0;"/><rect fill="#FEFECE" filter="url(#f7fzru86zx0v5)" height="36.2969" rx="12.5" ry="12.5" style="stroke:#A80036;stroke-width:1.5;" width="63" x="716" y="301.4844"/><text fill="#000000" font-family="sans-serif" font-size="14" lengthAdjust="spacing" textLength="43" x="726" y="324.4795">invers</text><path d="M666,291.4844 L676,291.4844 C691,291.4844 691,319.6328 706,319.6328 L716,319.6328 " fill="none" style="stroke:#A80036;stroke-width:1.0;"/><path d="M486,263.3359 L496,263.3359 C511,263.3359 511,291.4844 526,291.4844 L536,291.4844 " fill="none" style="stroke:#A80036;stroke-width:1.0;"/><path d="M341,178.8906 L351,178.8906 C366,178.8906 366,263.3359 381,263.3359 L391,263.3359 " fill="none" style="stroke:#A80036;stroke-width:1.0;"/><rect fill="#FEFECE" filter="url(#f7fzru86zx0v5)" height="36.2969" rx="12.5" ry="12.5" style="stroke:#A80036;stroke-width:1.5;" width="64" x="170" y="104.4453"/><text fill="#000000" font-family="sans-serif" font-size="14" lengthAdjust="spacing" textLength="44" x="180" y="127.4404">regles</text><rect fill="#FEFECE" filter="url(#f7fzru86zx0v5)" height="36.2969" rx="12.5" ry="12.5" style="stroke:#A80036;stroke-width:1.5;" width="82" x="38" y="76.2969"/><text fill="#000000" font-family="sans-serif" font-size="14" lengthAdjust="spacing" textLength="62" x="48" y="99.292">definició</text><path d="M170,122.5938 L160,122.5938 C145,122.5938 145,94.4453 130,94.4453 L120,94.4453 " fill="none" style="stroke:#A80036;stroke-width:1.0;"/><rect fill="#FEFECE" filter="url(#f7fzru86zx0v5)" height="36.2969" rx="12.5" ry="12.5" style="stroke:#A80036;stroke-width:1.5;" width="83" x="37" y="132.5938"/><text fill="#000000" font-family="sans-serif" font-size="14" lengthAdjust="spacing" textLength="63" x="47" y="155.5889">aplicació</text><path d="M170,122.5938 L160,122.5938 C145,122.5938 145,150.7422 130,150.7422 L120,150.7422 " fill="none" style="stroke:#A80036;stroke-width:1.0;"/><path d="M284,178.8906 L274,178.8906 C259,178.8906 259,122.5938 244,122.5938 L234,122.5938 " fill="none" style="stroke:#A80036;stroke-width:1.0;"/><rect fill="#FEFECE" filter="url(#f7fzru86zx0v5)" height="36.2969" rx="12.5" ry="12.5" style="stroke:#A80036;stroke-width:1.5;" width="109" x="125" y="217.0391"/><text fill="#000000" font-family="sans-serif" font-size="14" lengthAdjust="spacing" textLength="89" x="135" y="240.0342">autenticació</text><rect fill="#FEFECE" filter="url(#f7fzru86zx0v5)" height="36.2969" rx="12.5" ry="12.5" style="stroke:#A80036;stroke-width:1.5;" width="65" x="10" y="188.8906"/><text fill="#000000" font-family="sans-serif" font-size="14" lengthAdjust="spacing" textLength="45" x="20" y="211.8857">bàsica</text><path d="M125,235.1875 L115,235.1875 C100,235.1875 100,207.0391 85,207.0391 L75,207.0391 " fill="none" style="stroke:#A80036;stroke-width:1.0;"/><rect fill="#FEFECE" filter="url(#f7fzru86zx0v5)" height="36.2969" rx="12.5" ry="12.5" style="stroke:#A80036;stroke-width:1.5;" width="51" x="24" y="245.1875"/><text fill="#000000" font-family="sans-serif" font-size="14" lengthAdjust="spacing" textLength="31" x="34" y="268.1826">ldap</text><path d="M125,235.1875 L115,235.1875 C100,235.1875 100,263.3359 85,263.3359 L75,263.3359 " fill="none" style="stroke:#A80036;stroke-width:1.0;"/><path d="M284,178.8906 L274,178.8906 C259,178.8906 259,235.1875 244,235.1875 L234,235.1875 " fill="none" style="stroke:#A80036;stroke-width:1.0;"/><!--MD5=[40dcbcee55ac20173ced2db8842bcd55]
@startmindmap
+ squid
++ tipus
+++ directe
+++ transparent
+++ invers
++ navegador
+++ configuració
++++ directe
+++ no configuració
++++ transparent
++++ invers
- - regles
- - - definició
- - - aplicació
- - autenticació
- - - bàsica
- - - ldap
@endmindmap

PlantUML version 1.2021.01(Tue Feb 02 07:55:08 UTC 2021)
(GPL source distribution)
Java Runtime: Java(TM) SE Runtime Environment
JVM: Java HotSpot(TM) 64-Bit Server VM
Default Encoding: UTF-8
Language: en
Country: US
--></g></svg>